# xmcd CD database file
#
# Track frame offsets:
#	150
#	21692
#	36929
#	59734
#	77900
#	103736
#	120124
#	138088
#	159872
#	178743
#	196972
#	216286
#	241283
#	279624
#	332550
#
# Disc length: 4440 seconds
#
# Revision: 0
# Processed by: cddbd v1.5.1PL0 Copyright (c) Steve Scherf et al.
# Submitted via: CDex 1.40Beta9
#
DISCID=d711560f
DTITLE=Leyona - Leyona's Greatest Groovin'
DYEAR=2004
DGENRE=Trip-Hop
TTITLE0=Try to Fly
TTITLE1=Free wave
TTITLE2=travellin' man
TTITLE3=Monkey Man
TTITLE4=La La Singin' Music 山嵐 feat. Leyona
TTITLE5=The Best Goes On
TTITLE6=NITE CLUB
TTITLE7=風をあつめて
TTITLE8=ひかりのうた
TTITLE9=Whoa child
TTITLE10=LOVE
TTITLE11=I'm in paradise (You make me feel)
TTITLE12=Sea shore (RAGGAMATIX Ver.)
TTITLE13=gomi01
TTITLE14=gomi02
EXTD=YEAR: 2004.07.28 ID3G: 27
EXTT0=
EXTT1=
EXTT2=
EXTT3=
EXTT4=
EXTT5=
EXTT6=
EXTT7=
EXTT8=
EXTT9=
EXTT10=
EXTT11=
EXTT12=
EXTT13=
EXTT14=
PLAYORDER=
